<svg id="Capa_1" enable-background="new 0 0 512 512" height="512" viewBox="0 0 512 512" width="512" xmlns="http://www.w3.org/2000/svg"><g><g><g><path d="m233.804 105.742h44.392c.371 3.798 3.574 6.766 7.469 6.766 4.145 0 7.505-3.36 7.505-7.505 0-7.869-6.402-14.271-14.271-14.271h-45.798c-7.869 0-14.271 6.402-14.271 14.271 0 4.145 3.36 7.505 7.505 7.505 3.895 0 7.098-2.968 7.469-6.766z"/><path d="m278.899 230.446h-45.798c-7.869 0-14.271 6.402-14.271 14.271 0 4.145 3.36 7.505 7.505 7.505 3.896 0 7.098-2.968 7.469-6.766h44.392c.371 3.798 3.574 6.766 7.469 6.766 4.145 0 7.505-3.36 7.505-7.505 0-7.87-6.402-14.271-14.271-14.271z"/><path d="m233.101 373.903c-7.869 0-14.271 6.402-14.271 14.271 0 4.145 3.36 7.505 7.505 7.505 3.896 0 7.098-2.968 7.469-6.766h44.392c.371 3.798 3.574 6.766 7.469 6.766 4.145 0 7.505-3.36 7.505-7.505 0-7.869-6.402-14.271-14.271-14.271z"/><path d="m426.944 0h-341.888c-17.75 0-32.191 14.441-32.191 32.191v418.285c0 14.134 9.159 26.16 21.851 30.478v18.762c0 6.774 5.51 12.284 12.284 12.284h25.484c6.773 0 12.284-5.51 12.284-12.284v-17.048h262.808v17.048c0 6.774 5.51 12.284 12.284 12.284h25.484c6.773 0 12.284-5.51 12.284-12.284v-18.878c12.513-4.417 21.507-16.356 21.507-30.362v-418.285c0-17.75-14.441-32.191-32.191-32.191zm-317.186 496.99h-20.033v-14.323h20.033zm292.828 0v-14.323h20.033v14.323zm41.539-46.514c0 9.474-7.708 17.182-17.182 17.182h-341.887c-9.474 0-17.182-7.708-17.182-17.182v-418.285c0-9.474 7.708-17.181 17.182-17.181h341.887c9.474 0 17.182 7.707 17.182 17.181z"/><path d="m401 37.4h-290c-10.536 0-19.107 8.571-19.107 19.107v24.187c0 4.145 3.36 7.505 7.505 7.505s7.505-3.36 7.505-7.505v-24.187c0-2.259 1.838-4.097 4.097-4.097h290c2.259 0 4.097 1.838 4.097 4.097v83.46c0 2.258-1.838 4.096-4.097 4.096h-290c-2.259 0-4.097-1.838-4.097-4.096v-24.187c0-4.145-3.36-7.505-7.505-7.505s-7.505 3.36-7.505 7.505v24.187c0 10.535 8.571 19.106 19.107 19.106h290c10.536 0 19.107-8.571 19.107-19.106v-83.46c0-10.536-8.571-19.107-19.107-19.107z"/><path d="m401 323.955h-290c-10.536 0-19.107 8.571-19.107 19.107v83.459c0 10.536 8.571 19.107 19.107 19.107h290c10.536 0 19.107-8.571 19.107-19.107v-27.571c0-4.145-3.36-7.505-7.505-7.505s-7.505 3.36-7.505 7.505v27.571c0 2.259-1.838 4.097-4.097 4.097h-290c-2.259 0-4.097-1.838-4.097-4.097v-83.459c0-2.259 1.838-4.097 4.097-4.097h290c2.259 0 4.097 1.838 4.097 4.097v20.802c0 4.145 3.36 7.505 7.505 7.505s7.505-3.36 7.505-7.505v-20.802c0-10.536-8.571-19.107-19.107-19.107z"/><path d="m401 180.679h-290c-10.536 0-19.107 8.571-19.107 19.107v83.458c0 10.535 8.571 19.106 19.107 19.106h290c10.536 0 19.107-8.571 19.107-19.106v-83.458c0-10.536-8.571-19.107-19.107-19.107zm4.097 102.565c0 2.258-1.838 4.096-4.097 4.096h-290c-2.259 0-4.097-1.838-4.097-4.096v-83.458c0-2.259 1.838-4.097 4.097-4.097h290c2.259 0 4.097 1.838 4.097 4.097z"/></g></g></g></svg>