<svg xmlns="http://www.w3.org/2000/svg" xmlns:xlink="http://www.w3.org/1999/xlink" width="142" height="156" viewBox="0 0 142 156">
  <defs>
    <filter id="Polygon_1" x="0" y="0" width="138" height="156" filterUnits="userSpaceOnUse">
      <feOffset dy="3" input="SourceAlpha"/>
      <feGaussianBlur stdDeviation="3" result="blur"/>
      <feFlood flood-opacity="0.161"/>
      <feComposite operator="in" in2="blur"/>
      <feComposite in="SourceGraphic"/>
    </filter>
  </defs>
  <g id="logo2" transform="translate(-21 -144)">
    <g transform="matrix(1, 0, 0, 1, 21, 144)" filter="url(#Polygon_1)">
      <path id="Polygon_1-2" data-name="Polygon 1" d="M51.662,30.153a20,20,0,0,1,34.676,0l34.429,59.877A20,20,0,0,1,103.429,120H34.571A20,20,0,0,1,17.232,90.031Z" transform="translate(129 6) rotate(90)" fill="#fff" opacity="0.51"/>
    </g>
    <path id="Path_5" data-name="Path 5" d="M34.118,25.41a10.548,10.548,0,0,1,18.288,0L70.563,56.99A10.548,10.548,0,0,1,61.419,72.8H25.1A10.548,10.548,0,0,1,15.96,56.99Z" transform="translate(123.398 175.739) rotate(90)" fill="#707070"/>
    <text id="Discarder" transform="translate(80 289)" fill="#fff" font-size="17" font-family="Poppins-Regular, Poppins"><tspan x="0" y="0">Discarder</tspan></text>
    <circle id="Ellipse_2" data-name="Ellipse 2" cx="5.5" cy="5.5" r="5.5" transform="translate(112 214)" fill="#707070"/>
    <g id="Ellipse_4" data-name="Ellipse 4" transform="matrix(0.875, -0.485, 0.485, 0.875, 51.104, 217.801)" fill="#fff" stroke="#707070" stroke-width="1" opacity="0.9">
      <ellipse cx="17.5" cy="10.5" rx="17.5" ry="10.5" stroke="none"/>
      <ellipse cx="17.5" cy="10.5" rx="17" ry="10" fill="none"/>
    </g>
    <circle id="Ellipse_5" data-name="Ellipse 5" cx="5.5" cy="5.5" r="5.5" transform="translate(66 214)" fill="#707070"/>
    <circle id="Ellipse_1" data-name="Ellipse 1" cx="5.5" cy="5.5" r="5.5" transform="translate(40 172)" fill="#707070"/>
    <circle id="Ellipse_3" data-name="Ellipse 3" cx="5.5" cy="5.5" r="5.5" transform="translate(40 255)" fill="#707070"/>
  </g>
</svg>
